<?xml version="1.0" encoding="utf-8"?>
<!-- Generator: Adobe Illustrator 15.0.0, SVG Export Plug-In . SVG Version: 6.00 Build 0)  -->
<!DOCTYPE svg PUBLIC "-//W3C//DTD SVG 1.1//EN" "http://www.w3.org/Graphics/SVG/1.1/DTD/svg11.dtd">
<svg version="1.1" xmlns="http://www.w3.org/2000/svg" xmlns:xlink="http://www.w3.org/1999/xlink" x="0px" y="0px" width="29.75px"
	 height="60px" viewBox="0 0 29.75 60" enable-background="new 0 0 29.75 60" xml:space="preserve">
<g id="Calque_1">
	<g>
		<polygon points="600.246,9.598 597.287,9.598 598.371,11.473 598.371,29.734 586.426,29.734 586.426,7.473 580.099,7.473 
			581.181,9.348 584.551,9.348 584.551,31.609 598.371,31.609 598.371,31.859 584.301,31.859 584.301,9.598 581.325,9.598 
			582.408,11.473 582.426,11.473 582.426,33.734 598.371,33.734 598.371,37.175 595.809,37.175 596.066,37.622 596.891,39.05 
			600.246,39.05 		"/>
		<polygon points="596.061,7.473 596.321,7.925 597.143,9.348 600.496,9.348 600.496,39.3 597.034,39.3 598.116,41.175 
			602.371,41.175 602.371,7.473 		"/>
	</g>
	<g>
		<polygon points="43.428,11.846 43.43,11.846 43.43,41.674 45.305,41.674 45.305,9.971 42.346,9.971 		"/>
		<polygon points="57.055,7.846 57.397,8.44 58.137,9.721 61.499,9.721 61.499,38.729 47.43,33.172 47.43,32.902 61.249,38.362 
			61.249,9.971 58.281,9.971 59.365,11.846 59.374,11.846 59.374,35.605 47.43,30.887 47.43,7.846 41.119,7.846 42.201,9.721 
			45.555,9.721 45.555,41.674 47.43,41.674 47.43,35.188 63.374,41.486 63.374,7.846 		"/>
	</g>
	<g>
		<polygon points="-317,21.196 -315.125,21.196 -315.125,9.629 -337.438,9.629 -336.355,11.504 -317,11.504 		"/>
		<polygon points="-338.664,7.504 -338.418,7.93 -337.582,9.379 -314.875,9.379 -314.875,21.196 -313,21.196 -313,7.504 		"/>
		<polygon points="-330.819,13.781 -330.819,39.143 -315.125,39.143 -315.125,32.08 -324.225,32.08 -323.143,33.955 -317,33.955 
			-317,37.268 -328.944,37.268 -328.944,12.699 		"/>
		<polygon points="-324.666,31.314 -324.368,31.83 -314.875,31.83 -314.875,39.393 -331.069,39.393 -331.069,13.926 -332.56,14.786 
			-332.944,15.008 -332.944,41.268 -313,41.268 -313,29.955 -325.451,29.955 		"/>
	</g>
	<g>
		<polygon points="-97.672,39.361 -112.135,39.361 -112.135,9.598 -115.092,9.598 -114.01,11.473 -114.01,41.236 -96.59,41.236 
			-97.427,39.786 		"/>
		<polygon points="-110.01,37.236 -110.01,7.473 -116.318,7.473 -115.236,9.348 -111.885,9.348 -111.885,39.111 -97.816,39.111 
			-98.899,37.236 		"/>
	</g>
	<g>
		<g>
			<path d="M177.425,31.671h15.693V9.598h-15.693V31.671z M179.3,11.473h11.943v18.323H179.3V11.473z"/>
			<polygon points="175.3,7.473 175.3,33.796 191.243,33.796 191.243,37.235 191.223,37.235 190.141,39.11 193.118,39.11 
				193.118,31.921 177.175,31.921 177.175,9.348 193.368,9.348 193.368,39.36 189.996,39.36 188.914,41.235 195.243,41.235 
				195.243,7.473 			"/>
		</g>
	</g>
	<g>
		<polygon points="363.449,11.473 363.449,37.236 349.379,37.236 349.379,7.473 343.068,7.473 344.151,9.348 347.504,9.348 
			347.504,39.111 365.324,39.111 365.324,9.598 362.352,9.598 363.436,11.473 		"/>
		<polygon points="361.125,7.473 362.208,9.348 365.574,9.348 365.574,39.361 347.254,39.361 347.254,9.598 344.296,9.598 
			345.379,11.473 345.379,11.473 345.379,41.236 367.449,41.236 367.449,7.473 		"/>
	</g>
	<g>
		<polygon points="384.395,39.322 383.313,41.197 392.017,41.197 392.047,41.27 392.077,41.197 400.717,41.197 399.635,39.322 		"/>
		<polygon points="399.554,39.072 399.49,39.072 399.635,39.322 399.698,39.322 		"/>
		<polygon points="398.466,37.188 398.402,37.188 398.407,37.197 398.471,37.197 		"/>
		<polygon points="399.698,39.322 399.635,39.322 400.717,41.197 400.78,41.197 		"/>
		<polygon points="398.471,37.197 398.407,37.197 399.49,39.072 399.554,39.072 		"/>
	</g>
	<g>
		<g>
			<path d="M421.727,9.347"/>
		</g>
		<g>
			<polygon points="423.001,23.207 428.195,35.733 438.84,12.359 438.954,12.609 449.462,35.729 459.871,9.597 456.009,9.597 
				457.092,11.472 457.106,11.472 449.349,30.947 440.496,11.472 445.246,11.472 446.328,9.597 431.262,9.597 432.345,11.472 
				437.184,11.472 428.275,31.032 424.751,22.533 420.494,11.472 420.5,11.472 421.582,9.597 417.763,9.597 			"/>
			<polygon points="447.556,7.472 430.034,7.472 431.117,9.347 446.473,9.347 			"/>
		</g>
	</g>
	<g>
		<polygon points="621.391,39.361 642.119,9.598 624.025,9.598 622.915,11.066 622.607,11.473 638.528,11.473 617.8,41.236 
			647.073,41.236 645.655,39.361 		"/>
		<polygon points="642.598,9.348 621.869,39.111 645.467,39.111 644.049,37.236 625.46,37.236 646.188,7.473 625.631,7.473 
			624.214,9.348 		"/>
	</g>
	<g>
		<rect x="751.314" y="39.361" width="4.252" height="1.875"/>
		<rect x="751.314" y="37.236" width="4.252" height="1.875"/>
		<rect x="751.314" y="31.92" width="4.252" height="1.875"/>
		<rect x="751.314" y="29.795" width="4.252" height="1.875"/>
	</g>
	<g>
		<path d="M787.332,41.363v-4.252h-1.875v4.252c0,0.376-0.16,2.251-3.315,2.251v1.875C787.273,45.489,787.332,41.532,787.332,41.363
			z"/>
		<path d="M787.582,41.363c0,0.044-0.063,4.376-5.44,4.376v1.875c6.001,0,7.315-4.513,7.315-6.251v-4.252h-1.875V41.363z"/>
		<path d="M803.469,41.363v-4.252h-1.875v4.252c0,0.376-0.16,2.251-3.315,2.251v1.875C803.41,45.489,803.469,41.532,803.469,41.363z
			"/>
		<path d="M803.719,41.363c0,0.044-0.063,4.376-5.44,4.376v1.875c6.001,0,7.315-4.513,7.315-6.251v-4.252h-1.875V41.363z"/>
		<rect x="785.33" y="31.92" width="4.252" height="1.875"/>
		<rect x="785.33" y="29.795" width="4.252" height="1.875"/>
	</g>
	<g>
		<polygon points="-726.212,9.36 -702.389,9.36 -701.551,7.91 -701.306,7.485 -727.295,7.485 -727.072,7.871 		"/>
		<path d="M-700.791,41.362h2.057l-13.471-29.879l8.59,0.002l1.083-1.875h-23.536l1.083,1.875l8.494,0.001l-13.469,29.876h2.057
			l6.62-14.684l0.138,0.302l-6.483,14.382h2.057l5.463-12.117l5.798,12.673l5.762-12.594l5.427,12.038h2.057l-6.448-14.302
			l0.138-0.302L-700.791,41.362z M-708.399,24.489l-0.647,1.414l-0.527,1.151l-4.738,10.356l-4.775-10.436l-1.036-2.265
			l-0.138-0.302l-0.001-0.003l0.004-0.002l5.91-13.109l5.892,13.068l0.095,0.043L-708.399,24.489z"/>
		<path d="M-719.986,24.408l0.63,1.378l0.317,0.692l0.089,0.194l4.639,10.137l4.816-10.525l0.822-1.796l-5.674-12.586
			L-719.986,24.408z M-714.311,32.303l-3.616-7.899l3.579-7.938l3.615,8.019L-714.311,32.303z"/>
	</g>
	<g>
		<g>
			<polygon points="-652.563,9.36 -628.739,9.36 -627.901,7.91 -627.656,7.485 -653.645,7.485 -653.422,7.871 			"/>
		</g>
		<g>
			<polygon points="-629.965,11.485 -628.883,9.61 -652.418,9.61 -651.335,11.485 -642.841,11.486 -656.315,41.373 -654.258,41.373 
				-640.698,11.295 -627.136,41.373 -625.08,41.373 -638.556,11.483 			"/>
		</g>
		<g>
			<path d="M-653.984,41.373h2.057l4.375-9.704h13.709l4.375,9.704h2.057l-13.287-29.471L-653.984,41.373z M-634.688,29.794h-12.019
				l0.113-0.25h11.793L-634.688,29.794z M-645.749,27.669l5.051-11.204l5.052,11.204H-645.749z"/>
		</g>
	</g>
	<g>
		<g>
			<polygon points="-568.919,14.913 -568.919,14.917 -567.839,16.788 -554.976,16.788 -554.976,39.361 -571.17,39.361 
				-571.17,11.473 -570.92,11.473 -570.92,39.111 -555.226,39.111 -555.226,17.038 -567.695,17.038 -567.471,17.426 
				-566.612,18.913 -557.101,18.913 -557.101,37.236 -569.045,37.236 -569.045,11.473 -567.945,9.598 -576.471,9.598 
				-575.389,11.473 -573.045,11.473 -573.045,41.236 -553.101,41.236 -553.101,14.913 			"/>
		</g>
		<g>
			<polygon points="-566.719,7.473 -577.698,7.473 -576.616,9.348 -567.801,9.348 			"/>
		</g>
	</g>
	<g>
		<g>
			<polygon points="-520.75,39.322 -537.155,39.322 -537.155,9.348 -522.361,9.348 -521.278,7.473 -536.774,7.473 -537.61,8.921 
				-539.03,11.381 -539.03,41.197 -519.667,41.197 -520.505,39.747 			"/>
		</g>
		<g>
			<polygon points="-535.03,37.197 -535.03,11.473 -523.588,11.473 -522.729,9.984 -522.505,9.598 -536.905,9.598 -536.905,39.072 
				-520.895,39.072 -521.977,37.197 			"/>
		</g>
	</g>
	<g>
		<g>
			<polygon points="-510.734,7.473 -510.488,7.898 -509.652,9.348 -486.944,9.348 -486.944,39.361 -503.139,39.361 -503.139,13.895 
				-504.629,14.755 -505.014,14.977 -505.014,41.236 -485.069,41.236 -485.069,7.473 			"/>
		</g>
		<g>
			<polygon points="-502.889,39.111 -487.194,39.111 -487.194,9.598 -509.507,9.598 -508.425,11.473 -489.069,11.473 
				-489.069,37.236 -501.014,37.236 -501.014,12.668 -502.889,13.75 			"/>
		</g>
	</g>
	<g>
		<polygon points="-418.92,39.786 -419.165,39.361 -435.57,39.361 -435.57,9.348 -420.698,9.348 -419.615,7.473 -437.445,7.473 
			-437.445,41.236 -418.083,41.236 		"/>
		<polygon points="-421.925,11.473 -420.842,9.598 -435.32,9.598 -435.32,39.111 -419.31,39.111 -420.392,37.236 -433.445,37.236 
			-433.445,23.165 -428.675,23.165 -427.592,21.29 -433.445,21.29 -433.445,21.04 -427.448,21.04 -426.366,19.165 -433.445,19.165 
			-433.445,11.473 		"/>
	</g>
	<g>
		<polygon points="-403.015,7.473 -403.015,41.362 -401.14,41.362 -401.14,9.348 -386.249,9.348 -385.166,7.473 		"/>
		<polygon points="-400.89,41.362 -399.015,41.362 -399.015,31.669 -387.244,31.669 -388.326,29.794 -399.015,29.794 
			-399.015,29.544 -388.471,29.544 -388.694,29.157 -389.553,27.669 -399.015,27.669 -399.015,11.473 -387.476,11.473 
			-386.616,9.984 -386.393,9.598 -400.89,9.598 		"/>
	</g>
	<g>
		<polygon points="-361.981,11.473 -354.069,11.473 -354.069,27.669 -359.16,27.669 -362.409,29.544 -354.069,29.544 
			-354.069,29.794 -362.405,29.794 -359.157,31.669 -354.069,31.669 -354.069,41.362 -352.194,41.362 -352.194,11.473 
			-351.944,11.473 -351.944,41.362 -350.069,41.362 -350.069,11.473 -344.636,11.473 -343.554,9.598 -360.898,9.598 		"/>
		<polygon points="-359.672,7.473 -360.754,9.348 -343.409,9.348 -342.327,7.473 		"/>
	</g>
	<g>
		<polygon points="-296.92,14.913 -296.92,11.473 -296.93,11.473 -295.847,9.598 -302.011,9.598 -300.928,11.473 -300.92,11.473 
			-300.92,41.301 -299.045,41.301 -299.045,11.473 -298.795,11.473 -298.795,41.301 -296.92,41.301 -296.92,18.913 -284.975,18.913 
			-284.975,41.301 -283.1,41.301 -283.1,17.038 -296.92,17.038 -296.92,16.788 -282.85,16.788 -282.85,41.301 -280.975,41.301 
			-280.975,14.913 		"/>
		<polygon points="-294.62,7.473 -303.237,7.473 -302.155,9.348 -295.702,9.348 		"/>
	</g>
	<g>
		<polygon points="-235.197,7.473 -234.115,9.348 -230.764,9.348 -230.764,41.301 -228.889,41.301 -228.889,7.473 		"/>
		<polygon points="-232.889,11.473 -232.889,41.301 -231.014,41.301 -231.014,9.598 -233.971,9.598 		"/>
	</g>
	<g>
		<polygon points="-198.873,11.995 -198.873,42.149 -201.998,54.136 -200.184,54.609 -196.998,42.391 -196.998,10.12 
			-199.955,10.12 -198.873,11.995 		"/>
		<polygon points="-201.182,7.995 -200.1,9.87 -196.748,9.87 -196.752,42.438 -199.941,54.672 -200.063,54.641 -198.127,55.146 
			-194.873,42.663 -194.873,7.995 		"/>
	</g>
	<g>
		<polygon points="-147.986,37.239 -147.984,37.239 -147.985,37.241 -147.928,37.365 -147.918,37.365 -149.001,39.24 
			-144.974,39.24 -153.369,21.29 -160.857,21.29 -160.857,21.04 -153.363,21.04 -147.123,9.598 -151.412,9.598 -150.329,11.473 
			-150.281,11.473 -154.478,19.165 -160.857,19.165 -160.857,7.473 -167.168,7.473 -166.085,9.348 -162.732,9.348 -162.732,41.3 
			-160.857,41.3 -160.857,23.165 -154.56,23.165 		"/>
		<polygon points="-164.858,11.473 -164.857,11.473 -164.857,41.3 -162.982,41.3 -162.982,9.598 -165.941,9.598 		"/>
		<polygon points="-151.051,21.236 -143.543,7.473 -152.64,7.473 -151.909,8.736 -151.557,9.348 -146.701,9.348 -146.803,9.532 
			-153.15,21.168 -144.579,39.49 -149.146,39.49 -149.436,39.993 -150.228,41.365 -141.625,41.365 		"/>
	</g>
	<g>
		<polygon points="-51.874,7.572 -50.791,9.447 -47.439,9.447 -47.439,41.4 -45.564,41.4 -45.564,7.572 		"/>
		<polygon points="-79.309,11.572 -79.31,11.572 -79.31,41.4 -77.435,41.4 -77.435,9.697 -80.392,9.697 		"/>
		<path d="M-49.564,11.572v4.44h-10.882v-8.44h-6.307l0.207,0.359l0.875,1.516h3.35V41.4h1.875V30.769h10.882V41.4h1.875V9.697
			h-2.957L-49.564,11.572z M-49.564,29.894h-10.882v-0.25h10.882V29.894z M-49.564,28.769h-10.882V18.013h10.882V28.769z
			 M-49.564,17.138h-10.882v-0.25h10.882V17.138z"/>
		<path d="M-64.443,11.572h-0.003v4.44H-75.31v-8.44h-6.309l1.082,1.875h3.352v19.321h-0.125v0.875h0.125v0.25h-0.125v0.875h0.125
			V41.4h1.875V30.769h10.863V41.4h1.875V9.697h-2.955L-64.443,11.572z M-64.446,29.894H-75.31v-0.25h10.863V29.894z M-64.446,28.769
			H-75.31V18.013h10.863V28.769z M-64.446,17.138H-75.31v-0.25h10.863V17.138z"/>
	</g>
	<g>
		<polygon points="18.838,7.572 19.181,8.167 19.92,9.447 23.272,9.447 23.272,36.521 9.203,17.762 9.203,17.345 23.022,35.771 
			23.022,9.697 20.064,9.697 21.148,11.572 21.147,11.572 21.147,30.146 9.203,14.221 9.203,7.572 2.895,7.572 3.977,9.447 
			7.328,9.447 7.328,41.4 9.203,41.4 9.203,20.887 25.147,42.146 25.147,7.572 		"/>
		<polygon points="5.203,11.572 5.203,41.4 7.078,41.4 7.078,9.697 4.121,9.697 		"/>
	</g>
	<g>
		<path d="M106.582,23.297l-7.725-11.466L91.99,23.296l6.869,13.551L106.582,23.297z M98.951,15.325l5.426,8.054l-5.422,9.512
			l-4.824-9.519L98.951,15.325z"/>
		<polygon points="111.525,40.851 110.688,39.4 86.879,39.4 86.02,40.89 85.797,41.275 98.721,41.275 98.748,41.33 98.779,41.275 
			111.77,41.275 		"/>
		<polygon points="110.059,9.348 111.141,7.473 86.41,7.473 87.492,9.348 		"/>
		<path d="M87.023,39.15h23.52l-1.082-1.875h-8.4l8.021-14.072l-7.904-11.73h7.654l1.082-1.875H87.637l1.084,1.875h7.875
			L89.564,23.21l7.129,14.065h-8.588L87.023,39.15z M91.705,23.286l0.035-0.06l7.105-11.86l8.031,11.919l-0.039,0.067l-7.992,14.021
			l-0.105-0.207L91.705,23.286z"/>
	</g>
	<g>
		<polygon points="146.657,31.671 159.104,31.671 159.104,9.598 143.41,9.598 143.41,39.36 140.036,39.36 138.954,41.235 
			145.285,41.235 145.285,11.473 157.229,11.473 157.229,29.796 147.74,29.796 147.446,30.305 		"/>
		<polygon points="161.229,7.473 141.285,7.473 141.285,37.235 141.263,37.235 140.181,39.11 143.16,39.11 143.16,9.348 
			159.354,9.348 159.354,31.921 146.513,31.921 145.431,33.796 161.229,33.796 		"/>
	</g>
	<g>
		<polygon points="223.541,41.236 232.783,41.236 223.14,24.36 227.135,17.45 227.135,7.473 207.004,7.473 208.077,9.348 
			225.26,9.348 225.26,16.947 225.243,16.977 220.978,24.354 229.553,39.361 224.624,39.361 223.787,40.811 		"/>
		<path d="M229.121,39.111l-8.36-14.632h-7.445v-0.25h7.445l4.249-7.349V9.598h-16.789l1.073,1.875h0.021v29.89h1.875v-29.89h0.25
			v29.89h1.875V26.354h6.356l6.219,10.882h-0.039l-1.083,1.875H229.121z M213.315,11.473h9.819v4.905l-3.455,5.977h-6.364V11.473z"
			/>
	</g>
	<g>
		<polygon points="258.471,21.929 268.581,7.473 239.089,7.473 262.475,37.227 244.967,37.227 249.595,30.753 249.583,30.732 
			249.609,30.732 249.726,30.569 249.717,30.584 252.187,30.584 249.592,27.532 241.322,39.102 266.334,39.102 242.948,9.348 
			264.722,9.348 264.563,9.55 258.242,18.389 254.824,14.483 252.038,14.483 		"/>
		<polygon points="249.574,27.128 252.515,30.584 252.975,30.584 254.985,30.584 249.44,24.091 237.191,41.227 270.707,41.227 
			247.321,11.473 250.688,11.473 260.349,11.473 257.982,14.483 255.195,14.483 258.211,18.023 264.208,9.598 243.462,9.598 
			266.848,39.352 240.836,39.352 240.978,39.154 		"/>
	</g>
	<g>
		<polygon points="281.482,11.473 290.098,11.473 290.098,41.362 291.973,41.362 291.973,11.473 292.223,11.473 292.223,41.362 
			294.098,41.362 294.098,11.473 302.707,11.473 303.79,9.598 280.399,9.598 		"/>
		<polygon points="279.173,7.473 280.256,9.348 303.935,9.348 305.018,7.473 		"/>
	</g>
	<g>
		<polygon points="386.858,23.207 392.047,35.721 397.235,23.204 402.473,9.597 398.663,9.597 399.746,11.472 399.741,11.472 
			395.503,22.486 392.047,30.824 388.608,22.533 384.352,11.472 384.357,11.472 385.439,9.597 381.62,9.597 		"/>
		<polygon points="393.734,37.197 399.217,23.971 405.567,7.472 397.436,7.472 398.519,9.347 402.836,9.347 397.467,23.297 
			392.047,36.373 386.627,23.3 381.257,9.347 385.584,9.347 386.667,7.472 378.525,7.472 384.895,24.018 390.358,37.197 
			385.622,37.197 384.539,39.072 399.49,39.072 398.407,37.197 		"/>
	</g>
	<polygon points="420.436,39.322 419.354,41.197 435.596,41.197 434.514,39.322 	"/>
	<g>
		<polygon points="442.984,39.361 441.902,41.236 457.122,41.236 456.04,39.361 		"/>
		<polyline points="422.81,7.472 414.668,7.472 421.037,24.018 426.502,37.197 421.663,37.197 420.58,39.072 434.369,39.072 
			433.287,37.197 429.863,37.197 438.838,17.49 447.813,37.236 444.211,37.236 443.129,39.111 455.896,39.111 454.813,37.236 
			451.148,37.236 463.005,7.472 454.781,7.472 455.864,9.347 460.24,9.347 460.172,9.518 449.478,36.365 449.355,36.099 
			438.84,12.963 428.184,36.36 428.074,36.095 422.77,23.3 417.399,9.347 421.727,9.347 		"/>
	</g>
	<g>
		<polygon points="485.328,39.361 506.057,9.598 501.027,9.598 502.445,11.473 502.466,11.473 496.358,20.242 489.625,11.473 
			489.63,11.473 491.047,9.598 485.821,9.598 495.234,21.856 495.084,22.072 485.313,9.348 491.236,9.348 492.469,7.717 
			492.653,7.473 481.51,7.473 493.96,23.687 481.737,41.236 492.436,41.236 491.018,39.361 		"/>
		<polygon points="500.839,9.348 506.535,9.348 485.807,39.111 490.829,39.111 489.411,37.236 489.397,37.236 496.516,27.016 
			504.364,37.236 504.354,37.236 502.938,39.111 508.168,39.111 497.641,25.4 497.79,25.186 508.676,39.361 502.749,39.361 
			501.332,41.236 512.479,41.236 498.915,23.57 510.126,7.473 499.421,7.473 499.605,7.717 		"/>
	</g>
	<g>
		<path d="M719.483,41.252l0.877-1.657c-0.17-0.09-17.006-9.16-17.007-22.682v-2h-13.818v-3.44h11.146l1.082-1.875H687.66v29.514
			l15.748-0.001l3.053-5.538c0.059,0.066,0.117,0.135,0.176,0.199l-3.084,5.589l-16.018,0.001h-0.125V9.348h14.497l0.138-0.238
			l0.944-1.637h-17.454v33.764l19.106-0.001l3.348-6.041c4.881,4.904,10.092,7.719,10.5,7.936l0.877-1.657
			c-0.181-0.096-18.036-9.719-18.138-24.435h-11.693v-0.25h11.943v0.125C701.479,31.55,719.301,41.155,719.483,41.252z
			 M699.451,18.913c0.496,5.092,2.836,9.509,5.715,13.127l-2.847,5.195l-12.784,0.001V18.913H699.451z"/>
		<polygon points="718.596,12.536 717.257,14.544 718.309,14.544 720.231,11.661 706.957,11.661 707.839,10.778 706.603,10.778 
			704.845,12.536 		"/>
		<polygon points="716.493,13.661 715.904,14.544 716.957,14.544 718.129,12.786 704.241,12.786 706.248,10.778 705.012,10.778 
			702.129,13.661 		"/>
	</g>
	<g>
		<polygon points="-34.049,9.504 -34.049,14.116 -19.127,37.882 -5.514,14.185 -5.502,14.19 -5.502,9.754 -8.459,9.754 
			-7.375,11.629 -7.377,11.629 -7.377,13.666 -19.205,34.256 -32.174,13.796 -32.174,7.629 -38.488,7.629 -37.404,9.504 		"/>
		<polygon points="-9.686,7.629 -8.602,9.504 -5.252,9.504 -5.252,14.335 -19.117,38.366 -19.227,38.191 -34.299,14.274 
			-34.299,9.754 -37.262,9.754 -36.178,11.629 -36.174,11.629 -36.174,41.436 -34.299,41.436 -34.299,17.915 -34.049,18.31 
			-34.049,41.436 -32.174,41.436 -32.174,21.268 -19.037,41.992 -7.377,21.696 -7.377,41.436 -5.502,41.436 -5.502,18.433 
			-5.252,17.997 -5.252,41.436 -3.377,41.436 -3.377,7.629 		"/>
	</g>
	<g>
		<rect x="819.347" y="39.361" width="4.252" height="1.875"/>
		<rect x="819.347" y="37.236" width="4.252" height="1.875"/>
		<polygon points="819.473,11.473 819.473,33.921 821.348,33.921 821.348,9.598 818.386,9.598 819.469,11.473 		"/>
		<polygon points="821.598,33.921 823.473,33.921 823.473,7.473 817.159,7.473 818.242,9.348 821.598,9.348 		"/>
	</g>
	<g>
		<rect x="853.362" y="39.361" width="4.252" height="1.875"/>
		<rect x="853.362" y="37.236" width="4.252" height="1.875"/>
		<polygon points="853.649,32.252 853.738,32.071 864.854,9.598 849.235,9.598 849.235,15.24 855.824,17.972 856.634,16.28 
			851.11,14.06 851.11,11.473 861.834,11.473 850.63,34.127 860.097,34.127 858.679,32.252 		"/>
		<polygon points="855.717,18.196 848.985,15.398 848.985,9.348 865.256,9.348 865.167,9.528 854.052,32.002 858.49,32.002 
			857.072,30.128 857.071,30.127 868.275,7.473 847.11,7.473 847.11,16.579 854.907,19.888 		"/>
	</g>
</g>
<g id="Calque_2">
</g>
</svg>
