<?xml version="1.0" encoding="utf-8"?>
<!-- Generator: Adobe Illustrator 15.0.0, SVG Export Plug-In . SVG Version: 6.00 Build 0)  -->
<!DOCTYPE svg PUBLIC "-//W3C//DTD SVG 1.1//EN" "http://www.w3.org/Graphics/SVG/1.1/DTD/svg11.dtd">
<svg version="1.1" xmlns="http://www.w3.org/2000/svg" xmlns:xlink="http://www.w3.org/1999/xlink" x="0px" y="0px"
	 width="37.666px" height="60.295px" viewBox="0 0 37.666 60.295" enable-background="new 0 0 37.666 60.295" xml:space="preserve">
<g id="Calque_1">
	<g>
		<polygon points="-243.362,7.831 -262.313,7.831 -262.313,16.93 -260.438,14.646 -260.438,9.706 -247.159,9.706 -247.313,9.907 
			-257.83,23.643 -247.18,39.72 -260.411,39.72 -260.411,34.763 -260.901,34.114 -262.286,32.282 -262.286,41.595 -243.688,41.595 
			-255.528,23.722 		"/>
		<polygon points="-260.161,39.47 -247.645,39.47 -258.137,23.633 -258.083,23.562 -247.665,9.956 -260.188,9.956 -260.188,14.324 
			-258.313,11.844 -258.313,11.831 -251.462,11.831 -260.438,23.554 -251.136,37.595 -258.286,37.595 -258.286,37.572 
			-260.161,35.093 		"/>
	</g>
	<g>
		<polygon points="-332.441,16.391 -332.452,16.575 -332.452,41.698 -330.577,41.698 -330.577,12.026 -334.898,16.377 
			-332.536,16.377 		"/>
		<polygon points="-337.894,16.377 -335.251,16.377 -330.327,11.421 -330.327,41.698 -328.452,41.698 -328.452,6.872 		"/>
	</g>
	<g>
		<polygon points="-153.906,24.71 -154.81,26.272 -154.99,26.585 -142.217,26.585 -142.217,39.557 -158.41,39.557 -158.41,9.544 
			-155.055,9.544 -153.972,7.669 -160.285,7.669 -160.285,41.432 -140.342,41.432 -140.342,24.71 		"/>
		<polygon points="-156.189,28.71 -144.342,28.71 -144.342,37.432 -156.285,37.432 -156.285,11.669 -156.282,11.669 -155.199,9.794 
			-158.16,9.794 -158.16,39.307 -142.467,39.307 -142.467,26.835 -155.134,26.835 -156.16,28.611 		"/>
	</g>
	<g>
		<g>
			<polygon fill="none" points="-215.411,27.95 -215.411,18.174 -222.257,27.95 			"/>
			<path d="M-209.622,31.113l-0.624-1.08h-1.165v-0.25h1.021l-1.021-1.769v-0.021v-0.072v-0.014V5.488L-229.94,31.95h14.529
				l0.01,5.748h-0.018l-1.082,1.875h2.965V12.228l-12.322,17.598h10.473v0.25h-10.953l0.138-0.196l12.915-18.444v28.389h-3.359
				l-1.076,1.875h0.09h6.221v-9.79h2.196v-0.09L-209.622,31.113z M-215.411,27.95h-6.846l6.846-9.776V27.95z"/>
		</g>
	</g>
	<g>
		<polygon points="-179.972,30.765 -180.047,37.563 -190.253,37.563 -190.253,37.543 -192.128,36.46 -192.128,39.438 
			-178.147,39.438 -178.106,30.015 -190.192,17.259 -190.193,17.211 -190.206,9.618 -177.958,9.618 -177.958,12.97 -176.083,14.053 
			-176.083,7.743 -192.104,7.743 -192.059,18.008 		"/>
		<polygon points="-188.078,16.41 -188.055,11.743 -180.083,11.743 -180.083,11.743 -178.208,12.826 -178.208,9.868 -189.952,9.868 
			-189.944,17.159 -177.858,29.915 -177.857,29.963 -177.894,39.688 -192.378,39.688 -192.378,36.315 -194.253,35.232 
			-194.253,41.563 -175.994,41.563 -175.993,29.165 		"/>
	</g>
	<g>
		<polygon points="-294.581,9.618 -280.099,9.618 -280.099,17.242 -280.115,17.271 -292.944,39.438 -278.411,39.438 
			-278.411,36.482 -280.286,37.565 -280.286,37.563 -289.692,37.563 -278.224,17.746 -278.224,7.743 -296.456,7.743 -296.456,12.26 
			-294.581,13.343 		"/>
		<polygon points="-278.161,36.339 -278.161,39.688 -293.378,39.688 -280.349,17.176 -280.349,9.868 -294.331,9.868 
			-294.331,13.487 -292.456,14.57 -292.456,11.743 -282.224,11.743 -282.224,16.672 -296.63,41.563 -276.286,41.563 
			-276.286,35.256 		"/>
	</g>
	<g>
		<path d="M28.839,9.827h-16.85v29.746h16.85V9.827z M26.964,37.698h-13.1V11.702h13.1V37.698z"/>
		<path d="M9.864,7.702v33.996h21.1V7.702H9.864z M29.089,39.823h-17.35V9.577h17.35V39.823z"/>
		<rect x="18.578" y="18.753" transform="matrix(0.7071 0.7071 -0.7071 0.7071 20.4793 -7.6836)" width="1.874" height="4.252"/>
		<rect x="18.891" y="21.445" transform="matrix(-0.7071 0.7071 -0.7071 -0.7071 51.7056 23.3465)" width="4.252" height="1.874"/>
	</g>
	<path d="M-472.305,39.624l-12.347-27.386l-13.282,29.46h2.057l4.37-9.693h13.711l4.313,9.567h13.739v-1.875h-12.528
		L-472.305,39.624z M-484.651,16.801l5.052,11.204h-10.104L-484.651,16.801z M-490.661,30.13l0.113-0.25h11.794l0.112,0.25H-490.661
		z"/>
	<polygon points="-495.781,9.894 -494.698,11.769 -486.771,11.769 -500.265,41.698 -498.208,41.698 -484.714,11.769 
		-484.589,11.769 -484.537,11.883 -472.109,39.447 -459.743,39.447 -459.743,37.572 -470.898,37.572 -476.378,25.418 
		-471.951,25.418 -470.869,23.543 -477.224,23.543 -477.337,23.293 -470.725,23.293 -469.642,21.418 -478.182,21.418 
		-482.515,11.809 -470.372,11.809 -469.29,9.934 	"/>
	<polygon points="-469.146,9.684 -468.063,7.809 -497.008,7.769 -495.925,9.644 	"/>
	<g>
		<path d="M-419.396,23.544l6.868,13.551l7.724-13.55l-7.725-11.466L-419.396,23.544z M-407.01,23.627l-5.422,9.512l-4.824-9.519
			l4.82-8.047L-407.01,23.627z"/>
		<polygon points="-425.368,41.138 -425.591,41.523 -412.666,41.523 -412.639,41.578 -412.607,41.523 -396.191,41.523 
			-395.108,39.648 -424.509,39.648 		"/>
		<path d="M-410.327,37.523l6.901-12.105h3.999l1.082-1.875h-4.012l0.052-0.092l-0.106-0.158h4.211l1.083-1.875h-6.558l-6.534-9.697
			h13.326l1.083-1.875h-27.95l1.083,1.875h7.875l-7.03,11.737l7.129,14.065h-8.588l-1.083,1.875h29.4l0.755-1.308l0.327-0.567
			H-410.327z M-412.592,37.523l-0.055-0.108l-7.035-13.881l0.035-0.06l7.042-11.754h0.135l7.96,11.813l-0.039,0.067l-7.937,13.923
			H-412.592z"/>
		<polygon points="-395.655,9.596 -394.573,7.721 -424.977,7.721 -423.895,9.596 		"/>
	</g>
	<g>
		<polygon points="-124.161,9.878 -124.161,13.537 -122.286,14.62 -122.286,11.753 -111.611,11.753 -125.907,41.698 -123.83,41.698 
			-108.639,9.878 		"/>
		<polygon points="-126.286,7.753 -126.286,12.31 -124.411,13.393 -124.411,9.628 -108.242,9.628 -108.327,9.807 -123.552,41.698 
			-121.476,41.698 -105.27,7.753 		"/>
	</g>
	<path d="M-75.634,24.602L-63.91,7.769h-12.839h-1.09h-14.474l11.8,16.841l-11.786,16.923h15.55h2.047h10.932L-75.634,24.602z
		 M-88.708,39.657l20.729-29.764h-9.859h-10.39l9.009,12.858l-0.152,0.218l-9.337-13.326h10.87h10.338l-20.729,29.764h13.527h6.848
		l-9.072-12.948l0.152-0.219l9.4,13.417h-7.328H-88.708z M-78.078,21.112l-6.547-9.344h6.786h1.09h5.179L-78.078,21.112z
		 M-78.068,28.098l6.61,9.435h-3.244h-2.047h-7.89L-78.068,28.098z"/>
	<g>
		<polygon points="-44.16,7.669 -44.16,24.391 -30.596,24.391 -29.692,22.828 -29.512,22.516 -42.285,22.516 -42.285,9.544 
			-26.092,9.544 -26.092,39.557 -29.446,39.557 -30.53,41.432 -24.217,41.432 -24.217,7.669 		"/>
		<polygon points="-28.22,37.432 -29.303,39.307 -26.342,39.307 -26.342,9.794 -42.035,9.794 -42.035,22.266 -29.368,22.266 
			-28.342,20.489 -28.293,20.391 -40.16,20.391 -40.16,11.669 -28.217,11.669 -28.217,37.432 		"/>
	</g>
</g>
<g id="Calque_2">
</g>
</svg>
